<svg width="512" height="512" xmlns="http://www.w3.org/2000/svg">

 <g>
  <title>background</title>
  <rect fill="none" id="canvas_background" height="402" width="582" y="-1" x="-1"/>
 </g>
 <g>
  <title>Layer 1</title>
  <g id="svg_1">
   <circle id="svg_2" fill="none" r="43.962" cy="100.752" cx="255.993"/>
   <circle id="svg_3" fill="none" r="43.962" cy="291.31" cx="255.993"/>
  </g>
  <g opacity="0.84" id="svg_4">
   <path id="svg_5" fill="#999999" d="m338.842,0l-165.684,0c-27.103,0 -49.152,22.05 -49.152,49.151l0,293.76c0,27.101 22.049,49.15 49.152,49.15l68.187,0l0,105.284c0,8.092 6.561,14.654 14.654,14.654c8.093,0 14.654,-6.562 14.654,-14.654l0,-119.938c0,-8.092 -6.561,-14.654 -14.654,-14.654l-82.841,0c-10.941,0 -19.843,-8.901 -19.843,-19.842l0,-293.76c0,-10.942 8.902,-19.843 19.843,-19.843l165.684,0c10.941,0 19.843,8.901 19.843,19.843l0,293.76c0,10.941 -8.902,19.842 -19.843,19.842c-8.093,0 -14.654,6.562 -14.654,14.654c0,8.092 6.561,14.654 14.654,14.654c27.103,0 49.152,-22.049 49.152,-49.15l0,-293.76c0,-27.101 -22.05,-49.151 -49.152,-49.151z"/>
   <path id="svg_6" fill="#999999" d="m314.616,100.752c0,-32.321 -26.295,-58.617 -58.617,-58.617s-58.617,26.295 -58.617,58.617c0,19.613 9.692,36.993 24.528,47.639c-14.836,10.646 -24.528,28.028 -24.528,47.639s9.692,36.993 24.528,47.639c-14.836,10.646 -24.528,28.028 -24.528,47.639c0,32.321 26.295,58.617 58.617,58.617s58.617,-26.295 58.617,-58.617c0,-19.613 -9.692,-36.993 -24.528,-47.639c14.836,-10.646 24.528,-28.028 24.528,-47.639s-9.692,-36.993 -24.528,-47.639c14.836,-10.646 24.528,-28.028 24.528,-47.639zm-58.617,-29.309c16.161,0 29.308,13.148 29.308,29.308s-13.148,29.308 -29.308,29.308s-29.308,-13.148 -29.308,-29.308s13.149,-29.308 29.308,-29.308zm0,95.279c16.161,0 29.308,13.148 29.308,29.308c0,16.161 -13.148,29.308 -29.308,29.308s-29.308,-13.148 -29.308,-29.308s13.149,-29.308 29.308,-29.308zm0,153.896c-16.161,0 -29.308,-13.148 -29.308,-29.308c0,-16.161 13.148,-29.308 29.308,-29.308s29.308,13.148 29.308,29.308c0.001,16.161 -13.147,29.308 -29.308,29.308z"/>
  </g>
  <g id="svg_7"/>
  <g id="svg_8"/>
  <g id="svg_9"/>
  <g id="svg_10"/>
  <g id="svg_11"/>
  <g id="svg_12"/>
  <g id="svg_13"/>
  <g id="svg_14"/>
  <g id="svg_15"/>
  <g id="svg_16"/>
  <g id="svg_17"/>
  <g id="svg_18"/>
  <g id="svg_19"/>
  <g id="svg_20"/>
  <g id="svg_21"/>
 </g>
</svg>