<?xml version="1.0" encoding="iso-8859-1"?>
<!-- Generator: Adobe Illustrator 18.1.1, SVG Export Plug-In . SVG Version: 6.00 Build 0)  -->
<svg xmlns="http://www.w3.org/2000/svg" xmlns:xlink="http://www.w3.org/1999/xlink" version="1.1" id="Capa_1" x="0px" y="0px" viewBox="0 0 512.053 512.053" style="enable-background:new 0 0 512.053 512.053;" xml:space="preserve" width="512px" height="512px">
<g>
	<g>
		<path d="M365.027,44.5c-30-29.667-66.333-44.5-109-44.5s-79,14.833-109,44.5s-45,65.5-45,107.5    c0,25.333,12.833,67.667,38.5,127c25.667,59.334,51.333,113.334,77,162s38.5,72.334,38.5,71c4-7.334,9.5-17.334,16.5-30    s19.333-36.5,37-71.5s33.167-67.166,46.5-96.5c13.334-29.332,25.667-59.667,37-91s17-55,17-71    C410.027,110,395.027,74.167,365.027,44.5z M289.027,184c-9.333,9.333-20.5,14-33.5,14c-13,0-24.167-4.667-33.5-14    s-14-20.5-14-33.5s4.667-24,14-33s20.5-13.5,33.5-13.5c13,0,24.167,4.5,33.5,13.5s14,20,14,33S298.36,174.667,289.027,184z" fill="#b2bbc2"/>
	</g>
</g>
<g>
</g>
<g>
</g>
<g>
</g>
<g>
</g>
<g>
</g>
<g>
</g>
<g>
</g>
<g>
</g>
<g>
</g>
<g>
</g>
<g>
</g>
<g>
</g>
<g>
</g>
<g>
</g>
<g>
</g>
</svg>
